<svg xmlns="http://www.w3.org/2000/svg" width="1280" height="720" viewBox="0 0 1280 720"><rect width="100%" height="100%" fill="#DDDDDD"/><path fill="#999999" d="M310.645 400.345h19.5v13.88h-60v-13.88h21.97v-63.22q0-3.75.22-7.73l-15.59 13.06q-1.35 1.05-2.67 1.31-1.31.26-2.47.04-1.16-.23-2.07-.79-.89-.56-1.34-1.24l-5.86-8.02 33.08-28.13h15.23v94.72Zm74.62-3.37h27.82q3 0 4.77 1.69 1.76 1.68 1.76 4.46v11.1h-74.4v-6.15q0-1.88.79-3.94.78-2.06 2.51-3.71l32.93-33q4.12-4.2 7.38-8.02 3.26-3.83 5.44-7.58 2.18-3.75 3.34-7.61 1.16-3.87 1.16-8.14 0-3.9-1.12-6.86-1.13-2.96-3.19-4.99-2.06-2.02-4.95-3.04-2.89-1.01-6.49-1.01-3.3 0-6.11.94-2.82.94-4.99 2.62-2.17 1.69-3.67 3.94t-2.25 4.95q-1.28 3.45-3.3 4.58-2.03 1.12-5.86.52l-9.75-1.72q1.13-7.8 4.36-13.69 3.22-5.89 8.06-9.83 4.83-3.93 11.1-5.92 6.26-1.99 13.46-1.99 7.5 0 13.73 2.21 6.22 2.22 10.65 6.27 4.42 4.04 6.89 9.75 2.48 5.7 2.48 12.67 0 6-1.76 11.1-1.77 5.1-4.73 9.75-2.96 4.65-6.93 9-3.98 4.35-8.33 8.85l-24.45 24.98q3.53-1.06 7.01-1.62 3.49-.56 6.64-.56Zm84.75 3.97q4.57 0 8.03-1.31 3.45-1.31 5.81-3.63 2.36-2.33 3.56-5.55 1.2-3.23 1.2-6.98 0-8.92-4.95-13.5-4.95-4.57-13.65-4.57t-13.65 4.57q-4.95 4.58-4.95 13.5 0 3.75 1.2 6.98 1.2 3.22 3.56 5.55 2.37 2.32 5.82 3.63t8.02 1.31Zm0-82.42q-4.12 0-7.12 1.28-3 1.27-4.99 3.41-1.99 2.13-2.93 4.91-.93 2.77-.93 5.85 0 3.23.78 6.26.79 3.04 2.67 5.4 1.87 2.37 4.95 3.79 3.07 1.42 7.57 1.42t7.57-1.42q3.08-1.42 4.96-3.79 1.87-2.36 2.66-5.4.79-3.03.79-6.26 0-3.08-.98-5.85-.97-2.78-2.93-4.91-1.94-2.14-4.94-3.41-3-1.28-7.13-1.28Zm18.3 39.15q9.9 3.23 14.63 9.86 4.72 6.64 4.72 16.24 0 7.2-2.74 13.05-2.73 5.85-7.68 9.98-4.96 4.12-11.89 6.37-6.94 2.25-15.34 2.25-8.4 0-15.34-2.25-6.93-2.25-11.88-6.37-4.96-4.13-7.69-9.98-2.74-5.85-2.74-13.05 0-9.6 4.72-16.24 4.73-6.63 14.63-9.86-7.88-3.3-11.81-9.37-3.94-6.08-3.94-14.63 0-6.15 2.51-11.47 2.52-5.33 7.02-9.27 4.5-3.93 10.76-6.15 6.26-2.21 13.76-2.21t13.76 2.21q6.27 2.22 10.76 6.15 4.5 3.94 7.02 9.27 2.51 5.32 2.51 11.47 0 8.55-3.94 14.63-3.93 6.07-11.81 9.37Zm108.45 2.32q0 14.18-3.04 24.64-3.03 10.46-8.4 17.29-5.36 6.83-12.67 10.16-7.32 3.34-15.79 3.34-8.47 0-15.71-3.34-7.24-3.33-12.56-10.16-5.33-6.83-8.33-17.29-3-10.46-3-24.64 0-14.24 3-24.67 3-10.43 8.33-17.25 5.32-6.82 12.56-10.16t15.71-3.34q8.47 0 15.79 3.34 7.31 3.34 12.67 10.16 5.37 6.82 8.4 17.25 3.04 10.43 3.04 24.67Zm-19.12 0q0-11.77-1.73-19.49-1.72-7.73-4.61-12.3-2.89-4.58-6.64-6.42-3.75-1.83-7.8-1.83-3.97 0-7.69 1.83-3.71 1.84-6.56 6.42-2.85 4.57-4.54 12.3-1.68 7.72-1.68 19.49 0 11.78 1.68 19.5 1.69 7.73 4.54 12.3 2.85 4.58 6.56 6.42 3.72 1.84 7.69 1.84 4.05 0 7.8-1.84t6.64-6.42q2.89-4.57 4.61-12.3 1.73-7.72 1.73-19.5Zm138.22 29.41-9.82 9.67-25.43-25.42-25.65 25.57-9.82-9.68 25.65-25.72-24.45-24.45 9.75-9.75 24.45 24.45 24.3-24.3 9.9 9.75-24.38 24.38 25.5 25.5Zm51.52-83.63h74.93v8.03q0 3.59-.75 5.81-.75 2.21-1.5 3.71l-41.1 84.6q-1.28 2.63-3.6 4.46-2.33 1.84-6.23 1.84h-13.42l41.92-82.88q1.43-2.54 2.82-4.68 1.39-2.14 3.11-4.09h-51.9q-1.73 0-3-1.27-1.28-1.28-1.28-3v-12.53Zm125.78 91.2h27.82q3 0 4.77 1.69 1.76 1.68 1.76 4.46v11.1h-74.4v-6.15q0-1.88.79-3.94.78-2.06 2.51-3.71l32.93-33q4.12-4.2 7.38-8.02 3.26-3.83 5.44-7.58 2.18-3.75 3.34-7.61 1.16-3.87 1.16-8.14 0-3.9-1.13-6.86-1.12-2.96-3.18-4.99-2.07-2.02-4.95-3.04-2.89-1.01-6.49-1.01-3.3 0-6.11.94-2.82.94-4.99 2.62-2.18 1.69-3.68 3.94t-2.25 4.95q-1.27 3.45-3.29 4.58-2.03 1.12-5.86.52l-9.75-1.72q1.13-7.8 4.36-13.69 3.22-5.89 8.06-9.83 4.83-3.93 11.1-5.92 6.26-1.99 13.46-1.99 7.5 0 13.72 2.21 6.23 2.22 10.66 6.27 4.42 4.04 6.89 9.75 2.48 5.7 2.48 12.67 0 6-1.76 11.1-1.77 5.1-4.73 9.75-2.96 4.65-6.94 9-3.97 4.35-8.32 8.85l-24.45 24.98q3.52-1.06 7.01-1.62 3.49-.56 6.64-.56Zm124.5-36.98q0 14.18-3.04 24.64-3.03 10.46-8.4 17.29-5.36 6.83-12.67 10.16-7.32 3.34-15.79 3.34-8.48 0-15.71-3.34-7.24-3.33-12.57-10.16-5.32-6.83-8.32-17.29-3-10.46-3-24.64 0-14.24 3-24.67 3-10.43 8.32-17.25 5.33-6.82 12.57-10.16 7.23-3.34 15.71-3.34 8.47 0 15.79 3.34 7.31 3.34 12.67 10.16 5.37 6.82 8.4 17.25 3.04 10.43 3.04 24.67Zm-19.13 0q0-11.77-1.72-19.49-1.72-7.73-4.61-12.3-2.89-4.58-6.64-6.42-3.75-1.83-7.8-1.83-3.98 0-7.69 1.83-3.71 1.84-6.56 6.42-2.85 4.57-4.54 12.3-1.69 7.72-1.69 19.49 0 11.78 1.69 19.5 1.69 7.73 4.54 12.3 2.85 4.58 6.56 6.42 3.71 1.84 7.69 1.84 4.05 0 7.8-1.84t6.64-6.42q2.89-4.57 4.61-12.3 1.72-7.72 1.72-19.5Z"/></svg>